<?xml version="1.0" encoding="iso-8859-1"?>
<!-- Generator: Adobe Illustrator 19.0.0, SVG Export Plug-In . SVG Version: 6.00 Build 0)  -->
<svg version="1.1" id="Capa_1" xmlns="http://www.w3.org/2000/svg" xmlns:xlink="http://www.w3.org/1999/xlink" x="0px" y="0px"
	 viewBox="0 0 511.996 511.996" style="enable-background:new 0 0 511.996 511.996;" xml:space="preserve">
<circle style="fill:#91E584;" cx="174.935" cy="256.022" r="132.236"/>
<g>
	<path style="fill:#B85F3E;" d="M337.031,89.652c91.883,0.009,166.361,74.496,166.353,166.37
		c-0.009,91.874-74.496,166.361-166.37,166.353c-28.367,0-56.256-7.252-81.031-21.072c80.237-44.755,109.005-146.082,64.25-226.328
		c-15.041-26.968-37.29-49.209-64.25-64.25C280.749,96.869,308.655,89.618,337.031,89.652z"/>
	<path style="fill:#B85F3E;" d="M255.983,110.724c80.237,44.755,109.005,146.082,64.25,226.328S174.15,446.057,93.904,401.302
		S-15.1,255.211,29.655,174.974c29.382-52.673,84.964-85.322,145.28-85.322C203.31,89.635,231.208,96.895,255.983,110.724z
		 M307.171,256.013c0-73.028-59.208-132.236-132.236-132.236S42.699,182.985,42.699,256.013s59.208,132.236,132.236,132.236
		C247.938,388.189,307.111,329.016,307.171,256.013z"/>
</g>
<path style="fill:#944C31;" d="M174.935,430.906C78.343,430.923,0.026,352.648,0,256.056S78.258,81.138,174.85,81.121
	c96.592-0.026,174.91,78.258,174.935,174.85c0.017,63.405-34.287,121.853-89.647,152.754
	C234.092,423.253,204.761,430.889,174.935,430.906z M174.935,98.183C87.77,98.192,17.114,168.857,17.122,256.03
	c0.009,87.165,70.682,157.821,157.847,157.813c87.165-0.009,157.821-70.682,157.813-157.847
	c-0.009-57.22-30.977-109.952-80.954-137.824l0,0C228.333,105.025,201.852,98.141,174.935,98.183z"/>
<path style="fill:#A3FA96;" d="M174.935,396.78c-77.746,0-140.767-63.021-140.767-140.767s63.021-140.767,140.767-140.767
	s140.767,63.021,140.767,140.767C315.617,333.717,252.639,396.686,174.935,396.78z M174.935,132.309
	c-68.319,0-123.704,55.385-123.704,123.704s55.385,123.704,123.704,123.704S298.64,324.332,298.64,256.013
	C298.563,187.72,243.22,132.385,174.935,132.309z"/>
<g>
	<path style="fill:#944C31;" d="M337.031,430.906c-29.826-0.009-59.156-7.644-85.203-22.181l8.31-14.896
		c76.125,42.461,172.256,15.16,214.717-60.965s15.16-172.256-60.965-214.717c-47.784-26.652-105.968-26.652-153.752,0l-8.31-14.845
		c84.341-47.076,190.88-16.875,237.956,67.466c47.076,84.341,16.875,190.88-67.466,237.956
		C396.247,423.27,366.89,430.914,337.031,430.906z"/>
	<rect x="392.527" y="149.371" style="fill:#944C31;" width="17.063" height="17.063"/>
	<rect x="332.808" y="123.777" style="fill:#944C31;" width="17.063" height="17.063"/>
	<rect x="443.715" y="217.622" style="fill:#944C31;" width="17.063" height="17.063"/>
	<rect x="435.184" y="285.873" style="fill:#944C31;" width="17.063" height="17.063"/>
	<rect x="375.464" y="251.747" style="fill:#944C31;" width="17.063" height="17.063"/>
	<rect x="358.402" y="362.655" style="fill:#944C31;" width="17.063" height="17.063"/>
</g>
<g>
	<rect x="166.404" y="174.965" style="fill:#753C26;" width="17.063" height="25.594"/>
	<rect x="166.404" y="311.467" style="fill:#753C26;" width="17.063" height="25.594"/>
	
		<rect x="132.254" y="184.068" transform="matrix(-0.8662 0.4996 -0.4996 -0.8662 361.0962 297.0573)" style="fill:#753C26;" width="17.062" height="25.593"/>
	
		<rect x="200.489" y="302.289" transform="matrix(-0.8662 0.4996 -0.4996 -0.8662 547.5058 483.5939)" style="fill:#753C26;" width="17.062" height="25.593"/>
	
		<rect x="107.255" y="209.077" transform="matrix(-0.4996 0.8662 -0.8662 -0.4996 365.8313 232.4277)" style="fill:#753C26;" width="17.062" height="25.593"/>
	
		<rect x="225.487" y="277.329" transform="matrix(-0.4996 0.8662 -0.8662 -0.4996 602.2577 232.3623)" style="fill:#753C26;" width="17.062" height="25.593"/>
	<rect x="93.93" y="247.49" style="fill:#753C26;" width="25.594" height="17.063"/>
	<rect x="230.346" y="247.49" style="fill:#753C26;" width="25.594" height="17.063"/>
	
		<rect x="102.987" y="281.636" transform="matrix(-0.8661 0.4999 -0.4999 -0.8661 361.1153 483.5986)" style="fill:#753C26;" width="25.594" height="17.063"/>
	
		<rect x="221.267" y="213.369" transform="matrix(-0.8661 0.4999 -0.4999 -0.8661 547.7115 297.0786)" style="fill:#753C26;" width="25.594" height="17.063"/>
	
		<rect x="128" y="306.622" transform="matrix(-0.4999 0.8661 -0.8661 -0.4999 484.1308 350.7542)" style="fill:#753C26;" width="25.594" height="17.063"/>
	
		<rect x="196.265" y="188.387" transform="matrix(-0.4999 0.8661 -0.8661 -0.4999 484.1188 114.2909)" style="fill:#753C26;" width="25.594" height="17.063"/>
</g>
<g>
</g>
<g>
</g>
<g>
</g>
<g>
</g>
<g>
</g>
<g>
</g>
<g>
</g>
<g>
</g>
<g>
</g>
<g>
</g>
<g>
</g>
<g>
</g>
<g>
</g>
<g>
</g>
<g>
</g>
</svg>
